<?xml version="1.0" standalone="no"?>
<!DOCTYPE svg PUBLIC "-//W3C//DTD SVG 20010904//EN"
 "http://www.w3.org/TR/2001/REC-SVG-20010904/DTD/svg10.dtd">
<svg version="1.0" xmlns="http://www.w3.org/2000/svg"
 width="200.000000pt" height="200.000000pt" viewBox="0 0 200.000000 200.000000"
 preserveAspectRatio="xMidYMid meet">
<metadata>
Created by potrace 1.14, written by Peter Selinger 2001-2017
</metadata>
<g transform="translate(0.000000,200.000000) scale(0.100000,-0.100000)"
fill="#000000" stroke="none">
<path d="M945 1834 c-60 -31 -57 -27 -315 -474 -62 -107 -123 -213 -135 -235
-13 -22 -104 -181 -204 -354 -100 -172 -187 -332 -195 -355 -24 -71 -2 -138
56 -167 37 -19 60 -20 828 -19 434 0 804 3 822 7 63 12 107 55 112 111 4 50
-16 96 -129 292 -62 107 -122 211 -132 230 -11 19 -87 150 -168 290 -81 140
-190 329 -242 420 -53 91 -106 180 -120 198 -44 59 -124 84 -178 56z m196
-535 c20 -21 29 -41 29 -64 0 -48 -8 -62 -46 -86 -81 -50 -174 25 -144 116 23
69 111 87 161 34z m-157 -180 c110 -43 115 -48 130 -125 2 -10 14 -57 26 -104
12 -47 23 -92 25 -100 19 -92 26 -105 77 -139 l51 -33 27 32 27 33 37 -36 c58
-57 96 -161 68 -189 -18 -18 -127 -11 -181 13 -28 12 -51 25 -51 29 0 4 9 19
20 33 11 14 20 30 20 36 0 15 -102 72 -118 66 -18 -7 -52 12 -52 29 0 17 -34
47 -98 86 -50 30 -54 31 -66 14 -12 -15 -7 -26 35 -84 27 -37 49 -74 49 -84 0
-19 -62 -146 -92 -189 -32 -45 -98 -33 -98 18 0 11 16 50 35 85 19 36 35 70
35 76 0 12 -71 114 -80 114 -5 0 -16 -18 -73 -120 -97 -175 -112 -195 -143
-198 -33 -3 -54 14 -57 45 0 10 54 114 121 231 67 116 122 216 122 221 0 13
-61 50 -80 49 -35 -2 -47 3 -58 26 -9 21 -5 40 29 123 21 54 48 106 60 115 23
19 21 20 253 -73z"/>
<path d="M770 1038 c-11 -24 -20 -48 -20 -55 0 -11 58 -59 64 -52 15 21 66
112 64 114 -4 4 -79 35 -85 35 -2 0 -13 -19 -23 -42z"/>
<path d="M989 876 c-13 -25 -21 -46 -19 -48 3 -2 24 -16 46 -30 l42 -27 -10
42 c-5 23 -12 53 -14 67 -9 43 -20 42 -45 -4z"/>
</g>
</svg>
